<svg id="ico_24_actions_add" data-name="ico / 24 / actions / add" xmlns="http://www.w3.org/2000/svg" width="28" height="28" viewBox="0 0 28 28">
  <rect id="Bounding_box" data-name="Bounding box" width="28" height="28" rx="14" fill="#481072" opacity="0"/>
  <path id="Icon_color" data-name="Icon color" d="M14,6.5v1a.5.5,0,0,1-.5.5H8v5.5a.5.5,0,0,1-.5.5h-1a.5.5,0,0,1-.5-.5V8H.5A.5.5,0,0,1,0,7.5v-1A.5.5,0,0,1,.5,6H6V.5A.5.5,0,0,1,6.5,0h1A.5.5,0,0,1,8,.5V6h5.5A.5.5,0,0,1,14,6.5Z" transform="translate(7 7)" fill="#fff"/>
</svg>
